P1
# Created by GIMP version 2.10.30 PNM plug-in
128 64
1100111101001100100010001111000010001111111111111111111111111111111111
1111111100010001000000000000000000000000000000000000000000110100111001
0110010000100111100000001000000000000000000000000000000000000000010001
0010000000000000000000000010000000000000000000011110011101101110110000
0011100000001011111111111111111111111111111111111111010010011000011100
0000000010000000000000000000000000111111001101000001011010101010100000
1010111100100000001000000001011111111101010011010000010000000000000000
1100000000000000000000110101110110000000001100110100000000101001110010
1111111001111101011101111001010000110000010100000000000000000000000000
0000000000111111011011100000000110111101000000101000100010111111100111
1101011101111001010000110000000001000000000000000100100000100000000010
1111111110110000000001010100100000101010001010111111101111110101110011
1101010001110000010000000000000000000000000000000000000011101111111101
1100010001010110000000101011111010000000101111110101110011110101000111
0000000000000100000000000000000000000000000010100101111110001001010011
1000100000101011111010101111101111110101110011100101000111010000000000
0000000000000000000000000000000011111011101111100110000101100000000010
1011111010111111101111110100110011001101001101110001010000000000000000
0000000000000000000011001000101001000001110110000101010010101111101011
1111101111110110000000011101001110110110000001000000000000000000000000
0000000011111111111100100000010111000000000010101111101001110010111111
0111001100111101001110110000000000000000000000000000000000000000001100
0111111111100000000100000000000010101111101000000010000000011101111011
1101001110100000000000000000000000000000000100000000001100000001111111
1000001010000001000010111111111111111111111111111111111111110100110000
0000000000000000010000000000000110000000001110000011111111000001111000
0000000010000000000000000000000000000000000000000110000010000000000010
0000000001100111000000010000001110000011111111101010111100000000001111
1111111111111111111111111111111111111101100000000000100000000000000000
0001000000000000001110001111111111111011110000000000000000000000000000
0011011100100000000001000000001000000000001000000001000010000100000000
0000001111111011111111111111110110000000000000000001001000001101101100
1100000001000000000000000000000000000000111000000000111000000000111101
0011111111011001110000000000000000000010001100000110111110000100000000
0000000000000001000000000000000001000000000000000000111100001111111111
1000011010000000000000000001000110000011000010000000000000000011110000
0001000000000000001110100000000000000000111110001111101101000011000000
0000000000000000100011000001110000110011000000000010011100010000000010
0000100000010010110100000000111010000111111111100001110100000000000000
0000110001110000110010111000000000000000000111100000010001000000000101
1000000010000000111100000111111100000001101001000000000000000001001011
1000111100000000000000000000000000111000000000000010100100011100001000
0000111110000111011111000000111010000000000000000000010001111011111000
1000000000001000000000000110001000000000100100000110100000000011111000
0011111111110001111100000000000000000000011010011110111110000010000000
1100000000000001110111000011010011110101010100000011111000001111111111
0001111111000000000000000000000010000110010001111100000000100000000000
0001011111000001011111111111000100000011111000000111111111100111111000
0000000000000000000000100100000000001000000100100000000001110101111000
0001111111111111100000010011111000000011111111110111111100000000000000
0000001000001000000000010000000101100000000010110101111110000011111111
1111110000000011111000000011111111110111111110000000000000000000000000
0000000100000000000001001000000001001011110100000011111111111111000000
0011111000000001111111111111111111000000000000000000000001000100001010
0000000011000010000001001101111000000010111111111111100000001111000000
0000111111111111111100000000000000000000000000000000000000000000001000
0000000010100111111100000011011111110111100000001111100000000000111111
1111111111100000000000000000000000000000000000000000011000000000000110
1111111110000001111111111111100000001111100000000000011111111111111100
0000000000000000000000000000000010000000010001000000001101011111110000
0001111111111111100000001111110000000000001111111111111101000000000000
0000000000000001000000000000110001000000000111111111101000000111111111
1111100000001111110000000000000001111111111010000000000000000000000000
0000000000000000100000000000001010111111111000001111111111111100000000
1111110000000000000000000010110000000000000000000000000000000000000000
0001100000000000000111011111111100000111111111111100000000111111100000
0000000000000000000000000000000000000000000000000000000000000100101000
0000000111111111111110000111111111111100000000111111100000000000000000
0000000000100000000000000000000000000000000000000110000000000000001101
1111111110000111111111111100000000111111000000000000000000000000000000
0000000000000000000000000000000000001001000000000000001111101111111100
1111111111111000000000111111100000000000000000000000000011000000000000
0000000000000000000000001000100000000000000111111111111110011111111011
1000000000111111110000000000000000000000000010000000000000000000000000
0000000000000010100000000000000011010111111111111111111111000000000011
1111100000000000010100000000000011000000000000000000000000000000000001
0001000000000000000011100111111111111111111110000000000011111111000000
0000100000000000000011000000000000000000000000000000000001000010000000
0000000001110111111111111111111100000000000011111111100000000000010101
1000010101100000000000000000000000000000000001100000000000000000000001
1011111111111111111000000000000011111111110000000001100010000100101000
0000000000000000000000000000000001000000000000000000000000111111111111
1111100000000000000011111111110000000000000000110110001110000000000000
0000000000000000000001101000000000000000000000001011111111010000000000
0000000011111111110000000000000010101001001010000000000000000000000000
0000000001000000000000000000000000000010110000000000000000000000001111
1111111000000000000000001001000111000000000000000000000000000000000110
1000000000000000000000000000000000000000000000000000001111111111000000
0000000000000011010101000000000000000000000000000000000010001000000000
0000000000000000000000000000000000000000001111111111110000000000000000
0000100110100000000000000000000000000000000001000000000000000000000000
0000000000000000000000000000001111111111110000000000000000001010011100
0000000000000000000000000000001100101000000000000000000000000000000000
0000000000000000001111111111111000000000000000001011010110000000000000
0000000000000000000010000000000000000000000000000000000000000000000000
0000001111111111111000000000000000001001010110000000000000000000000000
0000000101000000000000000000000000000000000000000000000000010000111111
1111111100000000000000001001010010000000000000000000000000000000000010
0000000000000000000000000000000000000100000000000000111111111111111000
0000000000000100001100000000000000000000000000000000010100000000000000
0000101000000010111000000000000000000000111111111111111100000000000000
0001100110000000000000000000000000000000000010000000000000000001111111
0000000100000000000000000000111111111111111010000000000000010000110000
0000000000000000000000000000001000000000000000000000000111101100100010
0000000000000000111111111111111100000000000000000100011000000000000000
0000000000000000000010000000000000000000000001010100000000000000000000
0000111111111111111110000000000000000001110000000000000000000000000000
0000000000000010000000000000000000000000000000000000000000000011111111
1111111111000000000001100000110000000000000000000000000000000000000000
0000001000000000000000000000000000000000000000000011111111111111111101
0000000010010001011000000000000000000000000000000000000000000000110000
0000000000000000000000000000000000000011111111111111111110000000000000
1001010000000000000000000000000000000000000000000000001000000000000000
0000000000000000000000000011111111111111111111000000000101001010000000
0000000000000000000000000000000001000000000000000000000000000000000000
0000000000000011111111111111111111110000000100101011000000000000000000
0000000000000000000000100000000000000000000000000000000000000000000000
00